<svg width="36" height="36" viewBox="0 0 36 36" fill="none" xmlns="http://www.w3.org/2000/svg">
<path d="M11.959 17.1665C11.9592 20.503 14.6645 23.2084 18.001 23.2085C21.3375 23.2083 24.0418 20.503 24.042 17.1665H25.292C25.2918 20.9827 22.3601 24.1119 18.626 24.4292V25.7085H20.501V26.9585H15.501V25.7085H17.376V24.4292C13.6416 24.1121 10.7092 20.9829 10.709 17.1665H11.959Z" fill="#1E1E1E"/>
<path fill-rule="evenodd" clip-rule="evenodd" d="M18.001 9.0415C20.6472 9.04168 22.792 11.1872 22.792 13.8335V17.1665C22.7918 19.8126 20.6471 21.9583 18.001 21.9585C15.3548 21.9584 13.2092 19.8126 13.209 17.1665V13.8335C13.209 11.1872 15.3547 9.04164 18.001 9.0415ZM18.001 10.2915C16.0451 10.2916 14.459 11.8776 14.459 13.8335V17.1665C14.4592 19.1223 16.0452 20.7084 18.001 20.7085C19.9567 20.7083 21.5418 19.1222 21.542 17.1665V13.8335C21.542 11.8776 19.9568 10.2917 18.001 10.2915Z" fill="#1E1E1E"/>
</svg>
