<svg width="16" height="16" viewBox="0 0 16 16" fill="none" xmlns="http://www.w3.org/2000/svg">
<path fill-rule="evenodd" clip-rule="evenodd" d="M11.5462 1.58744C12.4936 1.41505 13.324 1.45987 13.9322 2.06791C14.5403 2.67609 14.585 3.50645 14.4126 4.45385C14.24 5.40221 13.8167 6.6383 13.2798 8.21322L12.5408 10.3804C12.1285 11.5897 11.8061 12.5398 11.497 13.1953C11.342 13.524 11.1751 13.8126 10.9798 14.032C10.7791 14.2574 10.5252 14.4346 10.204 14.482C9.94174 14.5206 9.67303 14.4969 9.41966 14.4156C9.11798 14.3186 8.88857 14.1127 8.70872 13.8671C8.53153 13.6251 8.38177 13.3176 8.2431 12.9656C7.96674 12.2639 7.68961 11.2665 7.33372 9.98978C7.1622 9.37437 7.10725 9.21582 7.01028 9.09916C6.97727 9.05948 6.94059 9.02279 6.90091 8.98978C6.78426 8.8929 6.62539 8.8378 6.01028 8.66635C4.73365 8.31049 3.73607 8.03331 3.0345 7.75697C2.68252 7.6183 2.37488 7.46853 2.13294 7.29135C1.8874 7.11146 1.6814 6.88215 1.5845 6.58041C1.50317 6.32705 1.47947 6.05845 1.5181 5.79603C1.56542 5.47482 1.74269 5.22098 1.9681 5.02025C2.18744 4.825 2.47614 4.6581 2.80482 4.50306C3.46025 4.19396 4.4104 3.87155 5.61966 3.45931L7.78685 2.72025C9.36166 2.18339 10.5979 1.76006 11.5462 1.58744ZM13.2251 2.77494C12.9773 2.52725 12.583 2.41571 11.7251 2.57181C10.8682 2.72784 9.71692 3.11837 8.1095 3.66635L5.94232 4.40541C4.70759 4.82633 3.82332 5.12858 3.23138 5.40775C2.93665 5.54678 2.74749 5.66516 2.63294 5.76713C2.52468 5.86356 2.51119 5.92008 2.50794 5.94213C2.49228 6.04885 2.50095 6.16311 2.53685 6.27494C2.54911 6.31288 2.58639 6.38376 2.72357 6.48431C2.86498 6.58789 3.08247 6.70075 3.40169 6.8265C4.04315 7.07912 4.97906 7.34071 6.27904 7.70306C6.80665 7.85013 7.22004 7.95456 7.53997 8.22025C7.62678 8.29244 7.70762 8.37329 7.77982 8.4601C8.0456 8.78004 8.14992 9.19332 8.297 9.72103C8.65939 11.0211 8.92094 11.9569 9.17357 12.5984C9.29933 12.9177 9.41217 13.135 9.51575 13.2765C9.61616 13.4135 9.68712 13.4509 9.72513 13.4632C9.83693 13.4991 9.9513 13.5078 10.0579 13.4921C10.08 13.4889 10.1365 13.4754 10.2329 13.3671C10.3349 13.2526 10.4533 13.0635 10.5923 12.7687C10.8715 12.1767 11.1737 11.2926 11.5947 10.0578L12.3337 7.89056C12.8817 6.28302 13.2723 5.13192 13.4283 4.27494C13.5844 3.41692 13.4729 3.02272 13.2251 2.77494Z" fill="#1E1E1E"/>
</svg>
